<?xml version="1.0" encoding="UTF-8"?>
<!DOCTYPE svg PUBLIC "-//W3C//DTD SVG 1.1//EN" "http://www.w3.org/Graphics/SVG/1.1/DTD/svg11.dtd">
<!-- Creator: CorelDRAW 2020 (64-Bit) -->
<svg xmlns="http://www.w3.org/2000/svg" xml:space="preserve" width="210mm" height="297mm" version="1.1" style="shape-rendering:geometricPrecision; text-rendering:geometricPrecision; image-rendering:optimizeQuality; fill-rule:evenodd; clip-rule:evenodd"
viewBox="0 0 210 297"
 xmlns:xlink="http://www.w3.org/1999/xlink"
 xmlns:xodm="http://www.corel.com/coreldraw/odm/2003">
 <defs>
  <style type="text/css">
   <![CDATA[
    .fil2 {fill:#051126}
    .fil1 {fill:#16436B}
    .fil0 {fill:#3E6B8E}
    .fil3 {fill:#E5832D}
    .fil4 {fill:#FCFEFC}
   ]]>
  </style>
 </defs>
 <g id="Layer_x0020_1">
  <metadata id="CorelCorpID_0Corel-Layer"/>
  <path class="fil0" d="M566.6015 55.9255c7.9066,-0.3241 16.3868,-0.0222 24.3736,-0.0471 24.4625,-0.0765 48.9189,0.1575 73.3778,0.019 32.5629,-0.1845 65.153,0.0577 97.7195,-0.0326 16.3671,-0.0454 28.0432,0.0257 43.1772,5.6604 4.4475,1.6558 8.6656,3.4484 12.6874,5.8361 3.7843,2.2466 7.5002,4.5157 10.9523,7.2128 1.2637,0.9873 2.2325,1.7552 3.4229,2.7546l10.1054 9.8288c2.5776,2.5141 6.3718,8.2485 8.4589,11.3025 1.6599,2.4291 3.2291,4.9797 4.5523,7.6213 1.7261,3.446 3.0486,7.0325 4.5552,10.7959 3.8006,9.4934 5.4617,20.2797 5.9444,30.5161 0.373,7.9111 0.0838,16.5373 0.055,24.5189 -0.0291,8.1059 0.0902,16.2377 -0.0104,24.3417 -0.2017,16.2607 0.1945,32.5845 -0.0234,48.8597 -0.2177,16.2597 0.2374,32.6009 0.0842,48.8597 -0.077,8.1645 0.0209,16.3462 -0.0448,24.5181 -0.0647,8.0539 -0.1544,16.2991 -0.043,24.3416 0.1052,7.5942 0.3041,16.554 -0.5329,23.983 -1.0433,9.2602 -3.8005,20.4109 -7.9256,28.7301 -2.9878,6.0256 -4.8312,9.2627 -8.4036,14.5272 -0.2247,0.3312 -0.4015,0.4969 -0.6239,0.7841l-7.7205 9.2359c-1.7836,1.7398 -3.4247,3.7903 -5.469,5.2901 -0.5155,0.3782 -1.2943,0.9756 -1.6613,1.3419 -0.3486,0.3479 0.0483,0.0587 -0.4383,0.4362l-6.3799 4.9239c-1.1639,0.8081 -2.3605,1.5833 -3.5948,2.3962 -4.5656,3.0069 -10.9703,6.2854 -16.2999,8.2219 -10.0988,3.6696 -19.9264,5.7126 -30.8892,5.6024 -16.2944,-0.1639 -32.733,-0.0506 -49.0361,0.0075 -16.2519,0.0579 -32.6291,-0.2463 -48.8598,-0.0031 -8.1024,0.1214 -16.4072,0.0537 -24.518,-0.0069 -8.105,-0.0607 -16.2478,0.115 -24.3417,-0.0047 -8.0924,-0.1198 -16.4157,-0.0686 -24.518,0.0026 -8.1086,0.0712 -16.2314,-0.056 -24.3417,0.0057 -7.6239,0.0579 -16.4778,0.3795 -23.9035,-0.6018 -8.3287,-1.1008 -16.8067,-3.0568 -24.14,-6.3706 -4.1448,-1.8729 -8.2553,-3.7939 -12.1014,-6.242l-12.2512 -9.108c-1.0897,-0.8993 -2.3154,-1.8592 -3.2638,-2.9061 -0.5103,-0.5631 -0.8886,-1.0335 -1.4045,-1.5962l-2.419 -2.3454c-6.189,-7.0258 -11.1018,-13.56 -15.3294,-22.6004 -6.1165,-13.0794 -8.7368,-25.1557 -8.8707,-39.9451 -0.1468,-16.2111 0.1427,-32.5149 -0.1356,-48.6834 -0.2797,-16.241 0.1319,-32.6004 0.0177,-48.8597l-0.0125 -48.8597c0.1287,-16.278 -0.1171,-32.5799 0.0011,-48.8597 0.0859,-11.8449 -0.0916,-22.3259 2.7981,-33.812 1.8919,-7.5199 2.9881,-10.9145 6.2049,-18.3023 0.6316,-1.4505 1.2666,-2.8857 2.0248,-4.1372 3.0429,-5.0231 6.0584,-10.028 9.7937,-14.5684l4.2536 -4.9163c1.5061,-1.6608 4.4763,-4.6643 6.2472,-6.1073 0.674,-0.5491 0.8603,-0.9741 1.5328,-1.4626l3.337 -2.6631c2.3064,-1.7624 4.5373,-3.4293 7.0938,-5.0691 2.5007,-1.604 4.8799,-3.1295 7.6524,-4.5225 11.6306,-5.8439 24.774,-9.2559 39.0842,-9.8426zm-6.8028 -6.1438c-6.0835,0.0845 -15.2861,2.4102 -21.1498,4.2097 -3.2014,0.9826 -6.0965,2.2371 -9.0713,3.4498l-6.4877 3.0234c-0.7367,0.3683 -1.3668,0.7802 -2.0405,1.136 -5.5417,2.9267 -10.1768,6.421 -14.9285,10.2906 -0.5514,0.449 -0.292,0.2899 -0.691,0.718 -0.3088,0.3313 -0.5299,0.4015 -0.9133,0.6813 -0.5931,0.4327 -0.3192,0.362 -0.7772,0.7995l-1.7458 1.4372c-0.9034,0.6212 -1.5161,1.674 -2.4413,2.3065 -0.5402,0.3693 -2.3079,2.6219 -3.0025,3.3601 -0.7227,0.7681 -0.6177,0.3534 -1.5856,1.5892l-8.1984 10.6588c-0.2427,0.3515 -0.4332,0.5756 -0.6638,0.9265 -4.7871,7.2849 -7.7295,14.1396 -10.7685,22.3893 -2.4572,6.6705 -3.5986,13.5949 -4.4863,20.7391 -0.9344,7.5195 -0.6865,16.6117 -0.6416,24.5377 0.1906,33.6143 0.0993,67.2798 0.0691,100.8945 -0.0151,16.7869 -0.1629,33.6704 -0.0199,50.4472l0.0457 37.7472c0.0434,12.672 0.0303,21.7258 3.8094,34.0215 2.6215,8.5291 5.5339,14.8194 9.4857,21.8767 0.382,0.6823 0.7862,1.2832 1.2259,1.9446 0.4325,0.6504 0.7313,1.2195 1.2217,1.9612 0.2267,0.3428 0.3816,0.6065 0.6236,0.9592 0.1149,0.1676 0.197,0.2716 0.2897,0.4111 1.3798,2.0774 2.8281,4.0959 4.4525,5.9476l4.9817 5.9552c1.5987,1.2102 4.7864,5.0071 5.568,5.5235 0.189,0.1248 0.2622,0.1276 0.4466,0.2663 0.5458,0.4106 0.1341,0.1044 0.4239,0.4498 0.4712,0.5618 0.3171,0.324 0.8846,0.7087l1.5825 1.4107c1.7265,1.7688 5.1004,3.9651 7.2406,5.4513 9.7297,6.7567 20.9671,11.7941 32.7289,14.5076 3.52,0.8122 7.2319,1.1974 10.9891,1.6511 3.9448,0.4763 8.0112,0.3188 12.1424,0.3187l113.5945 -0.0003c16.816,0.0236 33.6296,0.0146 50.4472,-0.0001l37.7472 0.0175c4.0707,-0.0134 8.6144,0.1889 12.5236,0.0071 13.6626,-0.6355 27.508,-4.9397 39.1554,-11.344 4.0111,-2.2055 7.6663,-4.8493 11.3226,-7.5342l7.2751 -5.9508c0.4587,-0.3118 0.0787,0.0552 0.508,-0.3776l5.5197 -5.5805c1.1202,-1.5201 2.4375,-2.7358 3.5512,-4.2082l8.0652 -10.9653c3.5363,-5.6599 7.5656,-14.1868 9.4892,-20.4609 5.4414,-17.7469 4.6917,-27.3632 4.7462,-45.7869 0.0994,-33.6222 -0.2143,-67.2791 0.0175,-100.8945 0.1157,-16.7893 0.1038,-33.6576 0.0371,-50.4472 -0.0333,-8.394 0.1024,-16.8366 0.0016,-25.2236 -0.1667,-13.8757 0.4821,-27.6955 -3.0296,-41.1702 -2.9243,-11.2207 -3.6231,-12.5389 -8.7046,-22.8618 -0.9064,-1.8413 -2.1478,-4.391 -3.3313,-6.0164 -0.3243,-0.4453 -0.3354,-0.3975 -0.6487,-0.9391 -0.1796,-0.3105 -0.3895,-0.658 -0.6,-0.9865 -0.4245,-0.6629 -0.8868,-1.2462 -1.306,-1.8637l-2.6459 -3.7026c-0.2599,-0.3316 -0.486,-0.5335 -0.7345,-0.8516l-3.5226 -4.2356c-0.9474,-1.126 -1.9357,-2.3448 -3.0399,-3.3094 -0.7262,-0.6345 -1.2711,-1.7557 -3.091,-3.2619l-4.054 -3.7006c-0.3492,-0.3387 -0.588,-0.3678 -0.9299,-0.6648l-3.5195 -2.8204c-0.5419,-0.438 -1.141,-0.9009 -1.767,-1.4114 -4.0186,-3.2774 -11.2229,-7.0735 -15.8674,-9.3538 -8.4539,-4.1506 -19.9757,-7.5516 -29.3833,-8.5534 -7.8549,-0.8366 -16.8178,-0.45 -24.8566,-0.4532 -33.6318,-0.0134 -67.2655,-0.0297 -100.8945,-0.0215 -33.5314,0.0082 -67.2265,-0.244 -100.6736,0.221z"/>
  <path class="fil1" d="M566.6015 55.9255c-14.3102,0.5867 -27.4536,3.9987 -39.0842,9.8426 -2.7725,1.393 -5.1517,2.9185 -7.6524,4.5225 -2.5565,1.6398 -4.7874,3.3067 -7.0938,5.0691l-3.337 2.6631c-0.6725,0.4885 -0.8588,0.9135 -1.5328,1.4626 -1.7709,1.443 -4.7411,4.4465 -6.2472,6.1073l-4.2536 4.9163c-3.7353,4.5404 -6.7508,9.5453 -9.7937,14.5684 -0.7582,1.2515 -1.3932,2.6867 -2.0248,4.1372 -3.2168,7.3878 -4.313,10.7824 -6.2049,18.3023 -2.8897,11.4861 -2.7122,21.9671 -2.7981,33.812 -0.1182,16.2798 0.1276,32.5817 -0.0011,48.8597l0.0125 48.8597c0.1142,16.2593 -0.2974,32.6187 -0.0177,48.8597 0.2783,16.1685 -0.0112,32.4723 0.1356,48.6834 0.1339,14.7894 2.7542,26.8657 8.8707,39.9451 4.2276,9.0404 9.1404,15.5746 15.3294,22.6004l2.419 2.3454c0.5159,0.5627 0.8942,1.0331 1.4045,1.5962 0.9484,1.0469 2.1741,2.0068 3.2638,2.9061l12.2512 9.108c3.8461,2.4481 7.9566,4.3691 12.1014,6.242 7.3333,3.3138 15.8113,5.2698 24.14,6.3706 7.4257,0.9813 16.2796,0.6597 23.9035,0.6018 8.1103,-0.0617 16.2331,0.0655 24.3417,-0.0057 8.1023,-0.0712 16.4256,-0.1224 24.518,-0.0026 8.0939,0.1197 16.2367,-0.056 24.3417,0.0047 8.1108,0.0606 16.4156,0.1283 24.518,0.0069 16.2307,-0.2432 32.6079,0.061 48.8598,0.0031 16.3031,-0.0581 32.7417,-0.1714 49.0361,-0.0075 10.9628,0.1102 20.7904,-1.9328 30.8892,-5.6024 5.3296,-1.9365 11.7343,-5.215 16.2999,-8.2219 1.2343,-0.8129 2.4309,-1.5881 3.5948,-2.3962l6.3799 -4.9239c0.4866,-0.3775 0.0897,-0.0883 0.4383,-0.4362 0.367,-0.3663 1.1458,-0.9637 1.6613,-1.3419 2.0443,-1.4998 3.6854,-3.5503 5.469,-5.2901l7.7205 -9.2359c0.2224,-0.2872 0.3992,-0.4529 0.6239,-0.7841 3.5724,-5.2645 5.4158,-8.5016 8.4036,-14.5272 4.1251,-8.3192 6.8823,-19.4699 7.9256,-28.7301 0.837,-7.429 0.6381,-16.3888 0.5329,-23.983 -0.1114,-8.0425 -0.0217,-16.2877 0.043,-24.3416 0.0657,-8.1719 -0.0322,-16.3536 0.0448,-24.5181 0.1532,-16.2588 -0.3019,-32.6 -0.0842,-48.8597 0.2179,-16.2752 -0.1783,-32.599 0.0234,-48.8597 0.1006,-8.104 -0.0187,-16.2358 0.0104,-24.3417 0.0288,-7.9816 0.318,-16.6078 -0.055,-24.5189 -0.4827,-10.2364 -2.1438,-21.0227 -5.9444,-30.5161 -1.5066,-3.7634 -2.8291,-7.3499 -4.5552,-10.7959 -1.3232,-2.6416 -2.8924,-5.1922 -4.5523,-7.6213 -2.0871,-3.054 -5.8813,-8.7884 -8.4589,-11.3025l-10.1054 -9.8288c-1.1904,-0.9994 -2.1592,-1.7673 -3.4229,-2.7546 -3.4521,-2.6971 -7.168,-4.9662 -10.9523,-7.2128 -4.0218,-2.3877 -8.2399,-4.1803 -12.6874,-5.8361 -15.134,-5.6347 -26.8101,-5.7058 -43.1772,-5.6604 -32.5665,0.0903 -65.1566,-0.1519 -97.7195,0.0326 -24.4589,0.1385 -48.9153,-0.0955 -73.3778,-0.019 -7.9868,0.0249 -16.467,-0.277 -24.3736,0.0471z"/>
  <path class="fil2" d="M825.0581 256.5789c1.0313,-11.3732 -3.0808,-40.0923 -7.114,-50.5864 -0.4816,-1.253 -0.7159,-2.4763 -1.1493,-3.7928 -0.379,-1.1513 -0.9068,-2.245 -1.3414,-3.4194 -0.4103,-1.109 -0.7337,-2.5067 -1.1949,-3.5639 -2.7725,-6.3554 -4.4346,-10.058 -7.6685,-16.4959 -0.5864,-1.1674 -1.2851,-1.9262 -1.8517,-3.0886 -1.7489,-3.5878 -4.9854,-8.6822 -7.3354,-11.8889 -0.3188,-0.435 -0.5734,-0.937 -0.928,-1.5433l-5.2305 -6.7594c-5.3471,-6.5789 -12.6381,-14.3282 -18.899,-19.7271 -3.038,-2.6197 -7.3571,-6.3686 -10.5707,-8.656 -8.248,-5.8706 -9.016,-6.3689 -17.7854,-11.3097 -2.1395,-1.2054 -4.1679,-1.9898 -6.3829,-3.1435 -4.2489,-2.2132 -8.9111,-4.008 -13.6864,-5.7119 -8.1565,-2.9102 -22.1827,-6.9555 -30.823,-7.78 -2.9309,-0.2796 -5.6709,-0.7808 -8.6691,-1.0134 -12.5788,-0.976 -32.8217,-0.4984 -44.5523,2.7873 -2.5373,0.7107 -5.1991,1.1775 -7.7795,1.9063 -6.3852,1.8033 -8.4727,2.3262 -14.8134,4.6164 -7.4641,2.6959 -12.959,5.2702 -19.8444,9.0649 -2.1104,1.163 -4.1104,2.3058 -6.1418,3.5551 -4.9773,3.0609 -6.8264,4.4128 -11.4814,7.7436 -2.1432,1.5336 -10.3976,8.4369 -11.931,9.9402 -0.4709,0.4616 -0.6634,0.7384 -1.1431,1.1431 -1.7669,1.4903 -5.8293,5.5461 -7.2167,7.2461l-4.6713 5.0304 -12.3656 16.5595c-2.9329,4.5883 -4.5469,7.5613 -7.1598,12.2449 -2.3088,4.1386 -7.2361,15.13 -8.9133,19.9991 -0.422,1.2253 -0.6766,2.5435 -1.1215,3.8272 -1.4341,4.1375 -2.1939,6.5705 -3.2624,11.0168 -2.5068,10.4317 -4.4332,22.1651 -4.7174,33.6845 -0.4074,16.509 1.3256,28.1319 5.0108,43.2741 0.6018,2.4728 1.2275,5.2722 2.1339,7.5552 1.8457,4.6488 3.205,9.6181 5.1037,14.1203 3.452,8.185 5.7995,12.0434 9.8591,19.2449 1.1777,2.0893 2.4666,3.7898 3.7341,5.7886 2.4253,3.8246 3.6651,5.158 6.1855,8.4549 0.7115,0.9308 1.2807,1.8452 1.9993,2.7621 5.4946,7.0116 10.144,11.3403 16.4673,17.3969 1.8518,1.7736 11.2006,9.6708 13.0966,10.8913 3.3247,2.1404 8.5502,5.8618 11.7092,7.6847 1.9733,1.1386 4.1426,2.3773 6.1584,3.5498 2.0623,1.1995 4.1458,2.0808 6.3674,3.1448 9.8697,4.7269 17.348,7.6555 28.2568,10.3495 17.7795,4.3907 34.0223,5.8489 52.5088,4.1993 6.0572,-0.5404 10.9177,-1.3758 16.7108,-2.4993 7.4719,-1.449 22.5739,-6.1737 29.3318,-9.3017 2.2587,-1.0454 4.3842,-2.1184 6.607,-3.1086 2.2543,-1.0041 4.198,-2.363 6.2894,-3.4163 3.7773,-1.9025 11.443,-6.6247 14.8914,-9.2529l8.1801 -6.2887c1.9808,-1.4939 7.7804,-6.861 10.211,-9.0088l4.8242 -4.8792c3.6503,-3.9703 10.0568,-11.4168 13.0869,-15.8356l5.9209 -8.7244c2.5624,-3.9913 6.417,-11.2754 8.413,-15.5679 5.3134,-11.4273 9.6379,-23.8461 11.9432,-36.3879 0.9144,-4.975 1.7515,-11.9123 2.2413,-17.005 0.2849,-2.9626 0.2324,-6.0398 0.5032,-9.0253z"/>
  <path class="fil3" d="M696.8646 183.0247c0.161,-1.7233 -0.396,-5.347 -0.4289,-7.4083 -0.0421,-2.6348 0.2997,-5.2774 0.26,-7.6743 -4.9895,0.0465 -15.0946,2.348 -19.8743,3.7202 -12.2399,3.5141 -22.333,7.6865 -33.1994,13.7409 -3.8136,2.1248 -7.2316,4.3486 -10.8303,6.8017l-14.0692 10.9885 -16.4543 17.2289c-5.5087,7.0159 -7.5432,9.925 -11.9198,17.1887l-4.1429 7.505c-5.5003,10.6884 -9.5364,21.2842 -12.8304,34.1081 -1.6384,6.3781 -2.4587,13.5654 -3.1682,20.2459 -0.7726,7.2742 -1.1519,14.6253 -0.5277,21.9232 1.1574,13.5335 3.4353,27.0022 7.899,39.0661 0.574,1.5514 1.0777,3.0314 2.0743,3.924 0.5173,0.4633 1.07,0.8127 1.7345,1.2687 1.6539,1.1348 1.7468,1.7796 4.8461,3.7939 2.0593,1.3385 1.5471,1.0173 3.3317,2.4971 1.0502,0.8709 2.2829,1.601 3.4335,2.3849 0.6351,0.4328 1.213,0.8587 1.7637,1.2345l8.899 5.4968c-0.0441,-0.4589 -3.0288,-5.7939 -3.5338,-6.7972 -3.583,-7.118 -6.6626,-13.9704 -9.2703,-21.5979 -3.3359,-9.7572 -5.8999,-24.6584 -6.1921,-35.0041 -0.495,-17.5333 2.4089,-36.6224 9.0638,-52.7093 2.3569,-5.6973 4.377,-10.5943 7.3165,-15.7749 0.177,-0.312 0.3485,-0.5288 0.5264,-0.8837 1.7427,-3.4769 7.1356,-11.5449 9.6727,-14.8422 0.4212,-0.5473 0.5924,-0.8353 1.0719,-1.3968 0.1938,-0.2271 0.4824,-0.5424 0.6472,-0.7612l5.2185 -6.253c0.3039,-0.3266 0.4182,-0.366 0.7084,-0.6873l3.1256 -3.231c0.9185,-0.8921 1.5908,-1.7048 2.5284,-2.586 1.0005,-0.9405 1.7713,-1.5931 2.6695,-2.4499 0.3644,-0.3476 0.2998,-0.3682 0.643,-0.7553l13.6643 -10.6776c7.8116,-5.8115 21.347,-12.4947 30.5855,-15.6119 5.6631,-1.9108 14.3978,-4.2823 20.3446,-5.263 1.1325,-0.1868 3.6481,-0.231 4.4135,-0.7522z"/>
  <g id="_2856662202784">
   <path class="fil4" d="M681.6572 354.8287c-0.0881,-1.5576 -0.1615,-6.888 0.4309,-8.014 0.95,-1.806 3.2274,-2.8013 5.1501,-0.9372 1.3987,1.3561 1.0026,5.0196 1.0577,7.3705 0.05,2.1367 -0.4879,1.6606 -2.5999,1.6731 -1.2024,0.0071 -2.9112,0.1542 -4.0388,-0.0924zm-23.3477 42.1912c9.6914,0.9253 18.5897,0.9298 28.2861,0.0191 4.3749,-0.4109 20.5771,-3.0806 24.7589,-5.0896 0.2567,-1.9399 0.1082,-11.4523 0.1143,-14.1914l0.0211 -28.2222c-0.0015,-4.6121 0.1691,-9.5561 -0.0163,-14.1214 -4.3362,-0.1776 -9.0514,-0.0109 -13.4304,-0.001l-38.2857 -0.0056c-0.5883,0.0023 -1.0585,-0.0298 -1.3318,0.2794 -0.3902,0.4415 -0.1799,40.0603 -0.1828,46.1278 -0.0023,4.884 -0.1912,10.4236 0.0666,15.2049z"/>
   <path class="fil4" d="M741.4179 321.4382c-5.1834,0.193 -4.7175,-0.7363 -4.2414,3.6217 0.3129,2.8639 1.473,3.8475 2.7476,5.5282 2.0766,2.7383 1.468,1.3341 1.4728,6.7769 0.0025,2.7612 -0.0334,5.5273 -0.0222,8.2903 0.0448,11.0817 0.7696,9.4552 -2.9384,9.4762l-20.6454 0.0439c-0.2867,3.4239 -0.0326,21.1 -0.0464,26.1104 -0.007,2.5544 0.1273,6.1388 -0.139,8.5397 0.8642,-0.1473 3.3715,-1.053 4.3187,-1.422 8.2476,-3.2135 11.3173,-4.6861 19.3525,-8.8588 2.5126,-1.3048 4.5675,-2.8177 6.91,-4.2096 5.0114,-2.9776 8.9336,-6.1099 12.9829,-9.4178 0.8011,-0.6545 6.7528,-5.861 7.4198,-6.6913 1.3926,-1.7334 3.2047,-2.7035 4.0407,-4.1435l-17.4818 -0.0501c-0.2739,-1.8243 -0.0637,-15.7539 -0.0785,-18.9021 -0.0262,-5.5643 0.1868,-3.6031 2.5156,-6.9557 0.9489,-1.366 1.0926,-1.284 1.418,-3.3162 0.1067,-0.6662 0.4736,-3.1284 0.342,-3.7904 -0.2896,-1.4572 -3.3242,-0.0748 -4.1209,-0.7584 -0.6256,-0.5368 0.4102,-21.2107 -0.4667,-24.627 -0.534,-2.0804 -1.0137,-4.7133 -1.3429,-6.9286l-3.7483 -21.2974c-0.6425,-3.2892 -0.2998,-5.7586 -1.7054,-6.658 -0.9093,0.6879 -0.7912,1.8986 -0.9845,3.2911 -0.1636,1.1785 -0.3615,2.3665 -0.5556,3.5091l-3.4969 21.3601c-0.4229,2.3749 -0.8182,4.7239 -1.2483,7.0527 -0.5529,2.9937 0.1629,22.8064 -0.258,24.4266z"/>
   <path class="fil4" d="M729.8253 148.2428c-5.1203,0.8749 -4.2314,-0.2142 -10.3356,2.7795 -1.6269,0.7979 -2.7473,1.577 -3.9902,2.5415 -7.1976,5.5851 -10.7109,13.8288 -10.0761,23.1427 0.2942,4.3169 1.7008,8.9975 3.9213,12.3061l2.9716 3.7323c5.7897,5.7292 12.2945,9.0244 21.1797,8.3406 5.3889,-0.4147 10.3284,-2.3216 14.1751,-5.4764 1.2393,-1.0164 2.5999,-2.0621 3.5185,-3.1826 3.7833,-4.6144 7.5109,-11.2936 6.5826,-19.8032 -0.6635,-6.0808 -2.8685,-11.6821 -6.9059,-15.9578 -2.3486,-2.4873 -5.9914,-5.5237 -9.664,-6.8976 -2.6508,-0.9917 -8.4858,-2.0192 -11.377,-1.5251z"/>
   <path class="fil4" d="M705.3479 325.6108c-1.3022,0.0862 -8.5281,0.1671 -9.3622,-0.1243 -0.3421,-2.0139 -0.0631,-7.3404 -0.0055,-9.6481 0.0744,-2.9772 1.5731,-5.082 4.533,-5.1091 2.6741,-0.0245 4.5526,2.3602 4.7711,4.9404 0.229,2.7053 0.1736,7.1764 0.0636,9.9411zm-15.5854 -0.0677l-9.7071 0.0633c-0.3019,-2.6141 -0.1681,-7.0759 -0.1119,-9.7626 0.0595,-2.8433 1.9508,-5.144 4.8713,-5.103 2.9554,0.0416 4.6871,2.0825 4.9525,4.9273 0.1895,2.0321 0.2314,7.9082 -0.0048,9.875zm-25.4258 0.1658c-0.2921,-1.5162 -0.1105,-10.6558 0.4224,-11.9195 1.3005,-3.084 5.5009,-4.2491 7.9714,-1.5587 1.3569,1.4776 1.2014,2.6436 1.2484,4.8492 0.0439,2.06 0.0583,4.1163 0.0687,6.1745 0.0145,2.9054 0.183,2.4311 -3.5206,2.361 -2.0573,-0.039 -4.1855,-0.0097 -6.1903,0.0935zm-9.2839 -19.2266c3.8879,3.2658 3.2465,-0.3903 3.2324,7.9521 -0.0066,3.8646 0.0737,7.8745 -0.0568,11.7203 -0.808,0.3122 -2.489,1.0815 -2.8394,1.7212 -0.7478,1.3649 0.4657,2.7478 1.2062,3.1268 0.7835,0.4009 26.2725,0.2117 28.3952,0.2143 6.3483,0.0076 12.7039,-0.0763 19.05,-0.0179 1.7339,0.016 8.2729,0.3578 9.248,-0.2931 0.6286,-0.4195 1.9003,-2.0489 1.2752,-2.9924 -0.7309,-1.1032 -2.5061,-1.5462 -2.9467,-1.8375l-0.1211 -17.733c0.6584,-0.2866 2.5362,-1.1002 2.8531,-1.5871 0.6808,-1.0458 0.2599,-2.7779 -0.753,-3.1046 -0.8293,-0.2676 -7.2883,-0.1474 -8.6735,-0.1465l-35.2778 -0.0069c-2.9368,0.0252 -5.884,0.0617 -8.8195,0.0318 -1.3549,-0.0138 -3.0672,-0.1091 -4.3854,0.0107 -1.3875,0.1261 -1.555,0.7703 -1.3869,2.9418z"/>
   <path class="fil4" d="M684.126 220.8056c-0.7913,1.8477 -0.1508,9.0752 -0.8817,10.0328 -1.7666,2.3148 -0.5832,2.9226 0.4983,4.369 -0.6442,2.0824 -1.4152,4.0777 -2.1167,6.1749 -0.7186,2.1481 -1.6812,4.1207 -2.3005,6.1811l-4.4829 12.4452c-0.837,2.131 -1.3785,4.1736 -2.2383,6.231 -1.7408,4.1653 -3.0209,8.2578 -4.5287,12.3957 -0.5974,1.6397 -1.9141,4.7157 -2.137,6.3894 6.2288,0.1992 12.7819,0.0309 19.0519,0.0528 3.9897,0.0139 16.4548,-0.2868 19.081,-0.0951l-18.3245 -49.7466c0.6015,-0.7795 1.3528,-0.9048 1.6081,-2.2155 0.2493,-1.2799 -0.6888,-1.9058 -1.3228,-2.547 -0.1873,-0.406 0.0074,-7.3666 -0.1727,-8.8274 -0.1143,-0.9266 -0.9093,-1.1603 -1.7335,-0.8403z"/>
   <path class="fil4" d="M651.746 362.2173c-3.2123,-0.1536 -6.8535,0.073 -10.1473,0.0713l-14.8166 -0.002c-2.6598,-0.0496 -3.0701,-0.732 -2.9969,1.8875 0.0853,3.0478 -0.1581,6.8236 0.1117,9.6372 -1.4322,0.3905 -11.2264,0.0835 -13.4236,0.0377 0.3176,1.1443 2.2985,4.048 2.969,5.0805 1.7166,2.6431 4.0956,7.7236 6.9371,8.9302 1.744,0.7405 3.9005,1.6518 5.763,2.1616 2.1038,0.5759 3.8416,1.3572 6.0417,1.9066 6.314,1.5767 12.2126,3.8468 19.588,4.0961l-0.0261 -33.8067z"/>
   <path class="fil4" d="M658.493 292.4587c1.5199,0.3858 2.6407,0.1137 2.8969,1.8658 0.1294,0.8849 0.0383,3.7998 -0.0146,4.8048l6.4449 -0.0113c0.2483,-2.5562 0.2371,-4.6943 3.0578,-4.6397 3.2596,0.0632 2.3851,4.0226 3.0144,4.6028 0.8514,0.3994 6.4218,0.137 7.8576,0.1093 0.2716,-1.148 -0.3906,-4.8194 3.2433,-4.5869 2.8312,0.181 2.0279,1.853 3.26,4.5667l7.8635 0.0391c0.1028,-1.3024 -0.5652,-4.6233 2.8092,-4.654 1.977,-0.018 2.4536,1.3744 2.6837,2.9264l0.3165 1.6648 6.0413 0.0997c0.5405,-1.4024 -0.1199,-3.4888 0.2118,-5.0367 0.3992,-1.8628 2.0693,-1.3755 3.0846,-2.0001 0.2149,-2.7668 -2.2688,-2.5524 -4.5775,-2.5767 -12.0581,-0.1264 -24.5878,0.003 -36.689,0.0051 -2.4105,0.0004 -4.823,-0.0307 -7.2323,-0.0012 -2.7508,0.0336 -5.0275,-0.5392 -4.2721,2.8221z"/>
  </g>
 </g>
</svg>
